<?xml version="1.0" encoding="utf-8"?>
<!-- Generator: Adobe Illustrator 16.0.0, SVG Export Plug-In . SVG Version: 6.00 Build 0)  -->
<!DOCTYPE svg PUBLIC "-//W3C//DTD SVG 1.1//EN" "http://www.w3.org/Graphics/SVG/1.1/DTD/svg11.dtd">
<svg version="1.1" id="Layer_1" xmlns="http://www.w3.org/2000/svg" xmlns:xlink="http://www.w3.org/1999/xlink" x="0px" y="0px"
	 width="849px" height="900px" viewBox="376.5 0 849 900" enable-background="new 376.5 0 849 900" xml:space="preserve">
<title>HTML5 Logo Badge</title>
<path fill="#E34F26" d="M623.63,644.039L584.632,206.5h428.979l-38.998,437.539L798.646,693.5"/>
<path fill="#EF652A" d="M799.597,655.453l141.725-38.998l33.291-374.762H799.597"/>
<path fill="#EBEBEB" d="M799.597,404.344h-71.338l-4.756-55.168h76.094V295.91h-0.951H664.53l0.951,14.268l13.316,148.383h120.799
	V404.344z M799.597,544.166h-0.951l-59.924-16.17l-3.805-42.803h-28.535h-24.73l6.658,84.654l110.336,30.438h0.951V544.166z"/>
<path fill="#FFFFFF" d="M798.646,404.344v54.217h66.582l-6.658,69.436l-59.924,16.17v56.119l110.336-30.438l0.951-9.512
	l12.365-141.725l1.902-14.268h-15.219H798.646z M798.646,295.91v33.291v19.975l0,0h130.311l0,0l0,0l0.951-11.414l2.854-27.584
	l0.951-14.268H798.646z"/>
</svg>
